<?xml version="1.0" standalone="no"?>
<!DOCTYPE svg PUBLIC "-//W3C//DTD SVG 20010904//EN"
 "http://www.w3.org/TR/2001/REC-SVG-20010904/DTD/svg10.dtd">
<svg version="1.0" xmlns="http://www.w3.org/2000/svg"
 width="300.000000pt" height="208.000000pt" viewBox="0 0 300.000000 208.000000"
 preserveAspectRatio="xMidYMid meet">

<g transform="translate(0.000000,208.000000) scale(0.100000,-0.100000)"
fill="white" stroke="none">
<path d="M1491 1592 c-19 -10 -42 -34 -52 -52 -14 -25 -26 -34 -51 -37 -69 -7
-114 -66 -105 -136 4 -31 1 -47 -14 -65 -11 -15 -19 -40 -19 -64 0 -52 43 -98
92 -98 18 0 42 -7 52 -15 24 -18 89 -20 119 -3 12 6 39 12 59 13 20 1 46 9 56
18 17 16 20 16 32 2 77 -93 233 -23 217 96 -3 27 1 50 14 76 39 77 16 159 -61
211 -29 20 -45 23 -97 20 -45 -2 -66 1 -80 13 -49 43 -107 51 -162 21z"/>
<path d="M1350 1100 c0 -27 29 -40 89 -40 57 0 64 -8 75 -81 9 -59 -6 -124
-36 -156 l-23 -25 44 22 45 22 18 -22 c15 -18 21 -20 33 -10 8 6 19 9 25 5 5
-3 10 1 10 10 0 11 5 15 14 12 8 -3 -5 30 -30 76 -24 45 -44 90 -44 99 0 22
36 46 92 62 23 7 44 18 46 24 5 16 -23 15 -56 -2 -36 -18 -112 -29 -126 -18
-6 5 -38 12 -70 15 -32 3 -64 11 -69 16 -17 17 -37 13 -37 -9z"/>
<path d="M573 840 c-27 -11 -37 -43 -22 -72 6 -13 32 -44 56 -71 34 -36 44
-54 41 -75 -2 -22 -9 -28 -35 -30 -26 -3 -34 2 -46 24 -8 15 -17 22 -20 17 -4
-6 3 -22 14 -37 36 -46 109 -25 109 31 0 12 -25 52 -55 88 -58 72 -64 85 -40
105 20 17 60 5 73 -22 l11 -23 0 22 c1 12 -9 29 -21 37 -25 18 -33 19 -65 6z"/>
<path d="M1853 835 c-37 -26 -29 -60 28 -126 39 -45 50 -65 47 -86 -3 -24 -8
-28 -33 -28 -22 0 -33 6 -40 23 -11 25 -25 29 -25 7 0 -22 37 -55 61 -55 39 0
59 19 59 55 0 28 -10 46 -51 91 -38 42 -49 62 -47 82 2 23 8 27 33 27 22 0 33
-6 40 -22 11 -25 25 -31 25 -10 0 42 -61 68 -97 42z"/>
<path d="M1060 705 c0 -83 4 -135 10 -135 6 0 10 52 10 135 0 83 -4 135 -10
135 -6 0 -10 -52 -10 -135z"/>
<path d="M1313 833 l27 -4 0 -130 c0 -79 4 -129 10 -129 6 0 10 50 10 129 l0
130 28 4 c15 2 -2 4 -38 4 -36 0 -53 -2 -37 -4z"/>
<path d="M700 820 c0 -5 7 -10 15 -10 8 0 15 5 15 10 0 6 -7 10 -15 10 -8 0
-15 -4 -15 -10z"/>
<path d="M2000 796 c0 -24 -5 -36 -17 -39 -17 -4 -17 -5 -1 -6 15 -1 18 -14
20 -88 3 -83 4 -88 26 -91 12 -2 22 1 22 7 0 6 -7 11 -15 11 -12 0 -15 15 -15
79 0 67 3 80 18 84 16 4 16 5 0 6 -14 1 -18 10 -18 36 0 19 -4 35 -10 35 -5 0
-10 -15 -10 -34z"/>
<path d="M810 760 c-7 -4 -19 -6 -27 -3 -10 4 -13 -15 -13 -91 0 -57 4 -96 10
-96 6 0 10 33 10 79 0 57 4 82 15 91 26 22 35 0 35 -86 0 -68 3 -84 15 -84 12
0 15 15 15 76 0 41 -4 83 -10 93 -12 23 -33 32 -50 21z"/>
<path d="M924 745 c-27 -27 -29 -38 -13 -84 9 -24 8 -35 -2 -47 -10 -13 -10
-17 1 -24 12 -7 11 -12 -3 -28 -32 -35 -16 -52 47 -52 78 0 89 56 15 80 -48
16 -57 40 -14 40 33 0 55 26 55 65 0 19 5 37 10 40 6 3 10 11 10 17 0 6 -6 5
-16 -3 -10 -8 -18 -9 -22 -3 -16 24 -43 23 -68 -1z m56 -14 c15 -28 12 -57 -6
-76 -22 -22 -44 -2 -44 39 0 50 30 72 50 37z m14 -171 c15 -15 -4 -30 -40 -30
-35 0 -39 5 -28 35 5 12 14 15 33 10 14 -4 30 -10 35 -15z"/>
<path d="M1145 756 c-23 -17 -33 -113 -15 -156 10 -23 19 -30 41 -30 18 0 32
7 39 19 13 25 13 41 0 41 -5 0 -10 -6 -10 -14 0 -19 -29 -41 -39 -30 -5 5 -12
26 -15 47 l-7 37 41 0 c39 0 40 1 40 34 0 25 -7 39 -22 50 -27 19 -29 19 -53
2z m53 -44 c3 -29 1 -32 -22 -32 -22 0 -26 5 -26 28 0 33 8 44 30 40 9 -2 16
-16 18 -36z"/>
<path d="M1530 750 c-22 -22 -28 -108 -10 -154 17 -47 90 -28 90 23 0 6 -4 11
-10 11 -5 0 -10 -6 -10 -14 0 -19 -29 -41 -40 -30 -4 5 -12 26 -15 47 l-7 37
41 0 c39 0 41 2 41 30 0 29 -29 70 -50 70 -5 0 -19 -9 -30 -20z m56 -24 c7
-31 -1 -46 -27 -46 -14 0 -19 7 -19 28 0 48 35 61 46 18z"/>
<path d="M1674 759 c-36 -13 -44 -137 -12 -176 13 -16 50 -17 66 -1 15 15 16
48 2 48 -5 0 -10 -6 -10 -13 0 -19 -20 -36 -36 -30 -9 3 -14 20 -14 44 0 38 1
39 35 39 33 0 35 2 35 33 0 51 -25 72 -66 56z m44 -47 c3 -29 1 -32 -22 -32
-22 0 -26 5 -26 28 0 33 8 44 30 40 9 -2 16 -16 18 -36z"/>
<path d="M2110 762 c-25 -8 -30 -24 -30 -98 0 -74 9 -94 46 -94 32 0 46 24 48
82 2 91 -18 125 -64 110z m38 -86 c3 -74 -10 -105 -34 -85 -9 8 -14 34 -14 79
0 71 5 82 30 78 11 -3 16 -19 18 -72z"/>
<path d="M700 665 c0 -78 3 -95 15 -95 12 0 15 17 15 95 0 78 -3 95 -15 95
-12 0 -15 -17 -15 -95z"/>
<path d="M1430 665 c0 -57 4 -95 10 -95 6 0 10 34 10 81 0 72 2 81 20 86 11 3
20 9 20 14 0 13 -14 11 -28 -3 -9 -9 -12 -9 -12 0 0 7 -4 12 -10 12 -6 0 -10
-38 -10 -95z"/>
<path d="M2210 665 c0 -57 4 -95 10 -95 6 0 10 31 10 74 0 66 3 77 22 90 12 9
19 19 15 22 -4 4 -13 1 -22 -6 -10 -8 -15 -9 -15 -1 0 6 -4 11 -10 11 -6 0
-10 -38 -10 -95z"/>
<path d="M2316 663 l23 -98 -22 -17 -22 -18 21 0 c12 0 26 6 32 13 13 16 56
207 48 214 -11 11 -17 -3 -28 -68 -6 -35 -14 -67 -18 -72 -3 -4 -12 27 -19 68
-8 48 -17 75 -25 75 -10 0 -8 -23 10 -97z"/>
</g>
</svg>
